<svg width="118" height="115" viewBox="0 0 118 115" fill="none" xmlns="http://www.w3.org/2000/svg">
<path fill-rule="evenodd" clip-rule="evenodd" d="M32.8429 77.863C35.4559 77.4788 44.9069 77.6913 48.0563 77.6921L80.0485 77.7118C80.0941 80.2031 80.0361 82.8735 80.0288 85.3802C84.3579 83.5413 86.5781 84.3501 89.9328 87.4199L90.7867 88.9586C92.4779 93.3402 91.0734 97.8568 86.5392 99.6428C84.5016 100.443 82.2268 100.38 80.2359 99.4704C79.2564 99.021 78.4982 98.3466 77.659 97.684C73.4344 106.158 68.4331 110.417 58.9339 112.03C56.7301 112.153 55.435 112.186 53.2394 112.045C36.9283 108.863 31.9474 96.3043 31.9966 81.1947C32.0009 79.8667 31.8837 78.8581 32.8429 77.863ZM34.3492 79.8783C34.4529 88.5114 35.0841 97.6402 41.6426 104.054C45.6033 107.882 50.9164 109.988 56.4231 109.912C62.0489 109.845 67.4131 107.523 71.313 103.466C77.1814 96.4999 77.7762 88.8501 77.8617 79.8911L34.3492 79.8783ZM87.9213 88.4933C84.8082 85.9674 82.6929 85.8996 79.654 88.5288C79.37 91.0051 79.1424 92.6813 78.5357 95.1033C83.3881 101.088 90.5803 96.8776 88.9916 90.4758L87.9213 88.4933Z" fill="#106061"/>
<path d="M58.0717 26.2102C61.1543 26.0419 65.5601 26.5242 68.5643 27.2125C80.0728 29.8446 90.0547 36.9649 96.2934 46.992C99.2212 51.6563 101.26 56.8227 102.307 62.2299C102.652 64.1212 102.869 66.0336 102.957 67.9541C103.333 76.224 102.717 86.0812 103 94.5128C103.078 96.8444 103.125 110.381 102.748 112.029C101.92 112.625 102.259 112.549 101.416 112.521C100.891 111.818 100.727 110.818 100.697 109.959C100.217 96.2014 101.301 81.8773 100.579 68.1769C100.445 65.5505 100.074 62.9414 99.4692 60.3818C97.9016 54.1185 94.9298 48.2941 90.7794 43.35C83.0008 34.115 73.2016 29.4927 61.3028 28.4976C58.9818 28.4931 56.6414 28.4685 54.3361 28.7472C46.1 29.709 38.3389 33.1107 32.0483 38.5158C23.9779 45.4814 18.8304 55.2356 17.6331 65.8316C17.1964 70.0472 17.3783 76.716 17.3813 81.1798L17.4353 104.575C17.4398 106.645 17.713 111.109 16.5216 112.629L16.0495 112.66C14.1145 110.915 15.0576 91.5621 14.972 87.6455C14.5934 70.2832 13.7712 54.2106 26.6188 40.5343C35.2136 31.3846 45.5275 26.7527 58.0717 26.2102Z" fill="#106061"/>
<path d="M32.7591 113.695C34.552 112.156 37.1929 112.741 39.5232 112.758C43.201 112.79 46.8793 112.79 50.5571 112.759L59.1472 112.789C62.3897 112.775 75.4461 112.517 78.0046 112.94C78.6462 113.654 78.4735 113.306 78.6436 114.268L78.2706 114.717C77.9529 114.85 77.4882 114.999 77.1379 114.999C63.1597 114.992 49.1755 115.007 35.2006 114.995C34.3218 114.995 33.2196 114.861 32.5729 114.265L32.7591 113.695Z" fill="#106061"/>
<path d="M58.2773 42.3758C61.6549 43.2002 57.4276 47.0733 57.6667 49.4615C58.6012 58.7954 64.4993 61.5195 58.1294 71.0562C57.6314 70.9976 56.2275 70.484 56.6554 69.8091C63.9983 58.2218 49.965 54.5561 58.2773 42.3758Z" fill="#106061"/>
<path d="M48.7211 42.4272C51.8815 42.983 47.975 47.7461 48.2498 49.8554C49.4898 59.3726 54.5973 61.2477 48.7446 71.0768C47.7702 70.9718 47.3248 70.8608 47.1866 69.8738C53.8985 57.0929 40.6707 53.7229 48.7211 42.4272Z" fill="#106061"/>
<path d="M67.4134 42.4244C67.8725 42.5408 68.9457 43.0039 68.689 43.6315C68.0625 45.3165 66.5618 47.5608 66.6506 49.4367C67.0649 58.1959 73.7183 62.0974 67.0671 71.1739C66.8655 71.1026 66.4158 70.9236 66.2641 70.8404C64.8222 69.5313 68.0253 65.5809 67.8903 63.537C67.3059 54.6733 60.543 51.3664 67.4134 42.4244Z" fill="#106061"/>
<path d="M58.2585 0C59.3403 0.036185 59.668 -0.00999232 60.2418 0.853047C60.4524 2.99201 60.6408 15.1143 59.8413 16.4842C59.4407 16.4312 58.1913 16.1787 58.1789 15.7278C58.0793 12.176 57.374 3.10759 58.2585 0Z" fill="#106061"/>
<path d="M78.0534 3.30329C78.5268 3.44965 79.7449 3.93734 79.5878 4.52548C78.7918 7.50939 76.4004 16.9726 74.7097 18.9973C73.8225 18.6843 73.5178 18.4616 73.1617 17.7427C73.5742 15.8849 77.0712 4.43366 78.0534 3.30329Z" fill="#106061"/>
<path d="M38.865 3.5637L40.0755 3.58854C41.3676 4.36787 45.4722 17.3969 44.907 18.6253C44.2986 18.719 44.1555 18.695 43.5353 18.6458C42.2262 17.762 39.4752 6.99533 38.754 4.95088C38.6453 4.64222 38.7681 3.898 38.865 3.5637Z" fill="#106061"/>
<path d="M95.0932 12.4388C96.2255 12.62 96.6312 12.5614 96.8444 13.7498C96.0455 15.6941 90.2861 23.573 88.699 25.8154C87.8091 25.8232 87.5132 25.5939 87.0163 24.982C86.883 23.7344 93.8068 14.3409 95.0932 12.4388Z" fill="#106061"/>
<path d="M22.2692 12.1397C23.6149 12.7657 30.2888 22.6604 31.2813 24.4097C31.2049 25.3208 31.1272 25.1396 30.393 25.9672C28.7913 25.3418 22.3242 15.668 21.3323 13.8328C21.4527 12.8151 21.494 13.0446 22.2692 12.1397Z" fill="#106061"/>
<path d="M8.16005 25.9314C9.61461 26.0345 19.3749 33.6906 20.3175 34.9566C20.3496 35.9813 20.3004 35.721 19.6041 36.7237C18.1768 36.1777 9.08639 29.0746 7.63966 27.6558C7.49634 26.8006 7.6823 26.8257 8.16005 25.9314Z" fill="#106061"/>
<path d="M108.803 26.0078L109.617 26.1209C110.279 26.6745 110.108 26.3777 110.253 27.237C109.498 29.0392 101.001 35.0394 99.0709 36.493L98.3011 36.3532C97.7438 35.7472 97.8733 36.0456 97.8072 35.2325C98.5586 33.5945 106.783 27.5953 108.803 26.0078Z" fill="#106061"/>
<path d="M0.578776 42.9455C2.84928 43.7662 11.5059 46.8146 12.9653 48.0771C13.1289 49.0757 13.0363 48.8575 12.5704 49.9222C10.5286 49.3009 1.22791 45.8501 0.0375998 44.7794C-0.0668564 43.7762 0.0257249 43.9833 0.578776 42.9455Z" fill="#106061"/>
<path d="M116.809 43.0662C117.064 43.1189 117.481 43.3241 117.738 43.4359C118.082 44.1194 118.038 43.8148 117.886 44.5857C116.637 45.9943 108.907 48.6466 106.48 49.596C105.943 49.6657 105.826 49.572 105.335 49.3649C104.945 48.5645 104.96 48.8869 105.202 48.1465C106.541 46.7355 114.365 44.1175 116.809 43.0662Z" fill="#106061"/>
</svg>
