<svg width="108" height="115" viewBox="0 0 108 115" fill="none" xmlns="http://www.w3.org/2000/svg">
<path fill-rule="evenodd" clip-rule="evenodd" d="M30.5957 56.1804C35.7842 55.7368 38.8913 58.16 42.0871 61.8287C45.0901 62.8853 49.1566 61.8164 50.7456 63.4425C51.1061 64.7329 51.134 66.2663 51.0603 67.6037C50.5196 77.3312 41.8384 74.1103 40.0285 76.0468C39.2721 76.8574 39.211 78.1858 39.2211 79.2283C39.2948 87.1205 45.5849 92.8343 48.8519 99.497C50.3368 102.521 51.403 106.064 51.4361 109.459C51.4487 110.846 51.1976 112.286 50.1822 113.3C48.2048 115.27 44.9607 114.841 42.4121 114.803C37.3556 114.814 19.6905 115.464 16.119 114.341C15.1899 114.05 14.4436 113.671 13.9917 112.761C12.687 110.137 13.9893 93.2945 14.5249 89.9051C15.0326 86.715 15.8041 83.5726 16.8296 80.5109C10.4405 77.0322 11.4305 71.2525 15.6544 66.2724C19.8732 61.3 23.7877 56.8648 30.5957 56.1804ZM43.3539 64.2551C36.325 61.7539 38.8328 57.6879 29.4305 58.4293C23.5719 59.7521 19.4977 64.7383 16.0251 69.3925C12.6212 73.9535 14.7942 79.7434 20.9447 78.4116C25.1203 77.5151 23.869 70.0801 25.2271 68.0013C25.9833 67.7514 25.6535 67.7636 26.524 68.0789C27.2068 69.1744 26.6765 73.1543 26.3821 74.5288C25.5139 78.5908 22.917 80.4058 19.0357 80.7781C18.0991 83.7103 17.33 86.6374 16.8299 89.6786C16.3019 92.8826 14.8448 109.273 16.0861 111.795C16.2486 112.121 16.6015 112.331 16.9416 112.432C19.1425 113.079 22.45 112.636 24.7827 112.599L38.7084 112.633C41.3357 112.65 44.1739 112.899 46.7707 112.536C47.4332 112.443 48.0145 112.264 48.5146 111.786C49.2329 111.096 49.3927 110.044 49.3572 109.09C48.9053 97.4743 37.3632 91.0514 37.0484 79.1011C37.0129 77.6693 37.0458 76.0517 38.0383 74.914C41.5058 70.9424 48.6695 77.3484 48.9639 64.6049C47.7658 64.5862 44.2576 64.5766 43.3539 64.2551Z" fill="#106061"/>
<path d="M53.8884 37.1914C56.1222 34.8115 59.0211 33.8038 62.0342 35.3884C69.4083 39.2676 65.5524 46.8075 60.6888 50.8805C58.8028 52.4552 55.9394 55.8936 53.7767 56.6377C52.5608 56.3864 50.7052 54.4624 49.7152 53.5421L51.713 52.5841C52.3349 53.0581 53.0939 53.7512 53.7005 54.275C53.7894 54.2007 53.8782 54.1256 53.9671 54.05C57.861 50.6709 67.337 43.7941 62.618 38.2364C61.7981 37.2716 60.3005 36.7973 59.0795 36.7623C56.6756 36.6936 55.9014 38.6774 54.4113 40.1662C52.1216 40.8246 50.36 34.1532 45.5268 37.8004C44.4328 38.6243 43.7271 39.8659 43.5773 41.2309C43.3006 43.6312 44.4886 45.107 45.8594 46.8346C45.4304 47.2986 44.8389 48.0768 44.2804 48.2264C42.5492 46.356 41.3181 44.3174 41.3841 41.6732C41.4171 39.7352 42.232 37.8942 43.6382 36.5706C44.9735 35.3225 46.7478 34.6626 48.5678 34.7377C50.9235 34.8378 52.1775 35.7656 53.8884 37.1914Z" fill="#106061"/>
<path d="M45.8594 46.8346C47.687 48.8268 49.7482 50.7196 51.713 52.5841L49.7152 53.5421C47.7378 51.7166 46.1386 50.1987 44.2804 48.2264C44.8389 48.0768 45.4304 47.2986 45.8594 46.8346Z" fill="#106061"/>
<path d="M60.3411 68.9514C61.8946 69.1138 64.2172 71.6086 65.4306 72.7338C67.1567 72.6314 68.8778 72.6904 70.6065 72.7223C71.8503 71.5348 73.8658 69.2538 75.5081 69.0911C76.4144 70.1969 76.6708 74.3511 77.0794 75.8624C78.2776 80.2761 79.3691 81.3471 77.8486 85.8473C85.0171 91.1686 88.8932 96.3714 89.406 105.592C89.4542 106.463 89.467 107.511 88.8552 108.176C88.0505 108.257 88.378 108.305 87.5631 107.84C86.9666 106.355 86.9666 103.414 86.662 101.653C85.3928 94.299 80.552 90.5496 75.0614 86.4125C77.4551 82.1579 76.0615 80.4377 74.838 76.0782C74.574 75.1389 74.4318 73.1613 74.3608 72.1183L71.2411 75.0485C68.6239 74.6231 67.342 74.68 64.7402 75.0526L61.6179 72.1219C61.4377 74.1062 61.293 75.774 60.6533 77.6689C59.2546 81.8244 59.1937 83.3298 61.4427 87.0244C56.2643 95.6778 57.1757 100.098 61.1838 108.833C59.6938 110.123 58.5997 110.997 57.3965 112.563C59.7801 112.713 62.5774 112.63 64.994 112.614L81.674 112.655C86.7508 112.673 97.2802 114.048 95.4678 105.739C94.4981 101.288 89.8503 98.4054 90.3072 93.3436C90.4417 91.6819 91.254 90.1509 92.5511 89.1141C93.866 88.0443 96.9248 86.6829 98.1103 88.5359C97.2929 89.9563 93.767 90.3299 92.8735 91.8877C90.3452 96.3034 97.8006 101.615 97.7727 106.456C97.7574 108.763 97.7752 110.108 96.3486 111.798C94.7291 113.651 91.8581 114.761 89.4441 114.78C78.9249 114.862 68.398 114.782 57.8813 114.827C56.9954 114.83 56.1425 114.411 55.4927 113.83C54.4976 111.507 56.9167 109.611 58.5972 108.297C54.9291 100.174 54.4392 94.9144 58.9424 86.9917C56.0054 81.7041 57.927 80.5015 59.0795 75.0983C59.4526 73.3523 59.3917 70.2263 60.3411 68.9514Z" fill="#106061"/>
<path d="M50.3854 22.7392C54.2971 22.136 60.3131 22.9618 64.1081 24.0592C74.0968 26.9983 82.4965 33.8447 87.4286 43.0655C90.9139 49.4305 92.3049 55.822 92.1526 63.0047C92.1272 64.2372 92.3202 66.3415 91.9978 67.4608C91.4089 68.1462 91.7109 67.9731 90.8682 68.1454C90.4722 67.8931 90.0127 67.6682 90.0432 67.091C90.9646 49.2645 83.8469 35.3624 67.3496 27.4123C62.9353 25.6415 58.224 24.7444 53.4721 24.7699C37.7643 24.9681 24.6432 34.7587 19.7161 49.2765C19.277 50.5669 18.3835 54.6951 17.6143 55.4837C16.7563 55.798 17.1066 55.7991 16.2918 55.5271C16.1649 55.3266 15.9415 54.9384 15.9872 54.6869C19.0917 36.864 32.8195 24.705 50.3854 22.7392Z" fill="#106061"/>
<path d="M53.4315 0C54.4291 0.254609 54.5636 0.267127 55.051 0.979114C55.2566 2.9026 55.4825 13.9913 54.6905 15.3708C53.6904 15.2446 53.5229 15.2115 53 14.418C52.7994 12.4079 52.6573 1.39129 53.4315 0Z" fill="#106061"/>
<path d="M71.3502 3.37403C72.1219 3.47464 72.3174 3.45906 72.886 3.9739C73.2718 5.25104 69.2992 15.7835 68.5351 17.6809C67.7431 17.5864 67.601 17.5885 66.9613 17.1201C66.5704 15.7046 70.5278 5.23725 71.3502 3.37403Z" fill="#106061"/>
<path d="M35.9189 3.3232C38.2314 3.80152 40.0717 13.3498 41.0897 15.7033C41.473 16.5907 41.1607 17.0885 40.7292 17.8336L39.8179 17.5326C38.6223 16.4324 35.9671 7.19138 35.4036 5.11007C35.1751 4.26044 35.5102 3.95679 35.9189 3.3232Z" fill="#106061"/>
<path d="M87.3931 11.8111C89.7259 12.8674 88.4161 14.131 87.2052 15.7309C85.012 18.6299 82.9229 21.8211 80.5622 24.5692C79.8869 24.2073 79.7879 24.1575 79.3209 23.5541C79.3056 22.0938 86.0706 13.3945 87.3931 11.8111Z" fill="#106061"/>
<path d="M99.5724 24.8549C99.7146 24.8504 100.331 24.9522 100.512 24.9783C101.035 25.501 100.908 25.224 100.931 26.0468C100.08 27.6534 92.3938 33.0852 90.4544 34.5339C90.0914 34.633 90.0203 34.5717 89.6294 34.5071C89.0405 33.8391 89.1573 34.1621 89.1725 33.3056C90.0762 31.6303 97.5874 26.3356 99.5724 24.8549Z" fill="#106061"/>
<path d="M20.2517 11.8134C21.7088 12.3673 28.0142 21.4523 28.8164 23.1059C28.6235 23.9389 28.5067 23.8546 27.8569 24.5648C26.415 23.706 20.4218 15.0881 19.4648 13.3587C19.5486 12.399 19.5384 12.6682 20.2517 11.8134Z" fill="#106061"/>
<path d="M13.0655 31.1022C11.4206 29.8968 7.3007 27.3244 7.22201 25.2927L7.74748 25.1614C10.0168 25.6407 12.4309 27.8712 14.3118 29.3692C15.8806 30.5508 18.2642 32.0509 18.8201 33.9553L18.7515 34.2849C16.9416 34.6818 14.3905 32.1927 13.0655 31.1022Z" fill="#106061"/>
<path d="M106.34 41.0195C107.251 40.8067 107.419 40.9165 108 41.5471L107.967 42.138C106.901 43.6079 99.3059 46.0624 97.2549 46.8121L96.5517 46.9603C95.8257 46.6839 96.072 46.8819 95.6379 46.178L95.8029 45.5687C97.0772 44.2206 104.154 41.8867 106.34 41.0195Z" fill="#106061"/>
<path d="M0.297207 40.893C1.85326 40.9068 10.4814 44.3317 11.9333 45.2288C12.3395 46.1558 12.2049 45.9142 11.9308 47.0941C10.2834 46.8298 1.54863 43.561 0.15504 42.5543C-0.106418 41.6633 -0.0226348 41.9076 0.297207 40.893Z" fill="#106061"/>
</svg>
