<svg width="115" height="115" viewBox="0 0 115 115" fill="none" xmlns="http://www.w3.org/2000/svg">
<path fill-rule="evenodd" clip-rule="evenodd" d="M59.3953 35.1551C63.3808 35.0088 67.824 37.6479 70.6123 40.3842C71.9913 41.8413 73.1858 43.4457 74.1677 45.1646C79.6504 54.8238 77.7408 68.9124 69.6455 76.9287C63.3505 83.4319 53.2793 83.6015 46.4778 77.2126C34.2782 65.7529 39.7372 35.8759 59.3953 35.1551ZM60.8594 37.527C68.718 55.955 50.3017 60.6277 58.0436 78.8212C58.1648 79.1058 58.2864 79.3897 58.4106 79.673C74.3888 77.0282 77.6227 58.2527 71.831 46.1056C70.8581 44.5544 70.0276 43.485 68.9063 42.0462C66.024 39.4826 64.7568 38.7251 60.8594 37.527ZM58.786 39.0794C58.2829 37.8585 57.4615 37.7382 56.2311 37.914C40.6351 42.8699 37.963 68.7915 50.6968 77.4949C52.6999 78.5395 53.3579 78.8142 55.537 79.4749C53.1518 73.6278 52.5487 66.0344 55.5461 60.3989C59.4134 53.1271 62.1137 47.1622 58.786 39.0794Z" fill="#106061"/>
<path d="M5.09015 40.8221C9.30512 40.2272 13.1212 42.1645 13.4919 46.4956C13.9041 51.3143 13.4267 56.407 13.5619 61.2649C13.5762 61.7726 13.1912 62.3798 12.8806 62.7769C11.9138 63.3003 12.2947 63.2577 11.3779 63.1288C9.84401 61.0113 12.0517 48.156 10.3417 45.1603C9.82703 44.2589 9.26057 43.487 8.19099 43.2343C2.91524 42.0902 3.16439 46.937 3.16529 50.1923C3.15984 58.1285 2.79188 66.0659 2.83038 74.0013C2.86129 80.3858 5.57327 82.0225 9.66306 86.3001C13.915 90.7472 19.0683 95.4175 22.3549 100.506C24.1562 103.896 24.4547 109.811 23.7434 113.589C23.6855 113.91 23.2878 114.484 22.9256 114.526C20.7304 114.783 11.3382 115.877 10.5441 113.482L10.9833 112.842C11.9468 112.337 19.6833 112.498 21.3348 112.497C21.3808 110.357 21.6206 106.214 20.9265 104.259C18.7358 95.7283 5.25776 88.0082 1.68594 81.1248C-1.62523 74.7437 0.961883 52.5734 0.963399 44.5565C0.963702 43.1757 3.98784 41.3507 5.09015 40.8221Z" fill="#106061"/>
<path d="M106.3 40.8314C106.867 40.7645 107.44 40.7208 108.009 40.7007C112.828 40.5549 114.586 43.9566 114.601 47.9686C114.635 56.8677 115.198 66.1027 114.926 74.9706C114.55 87.1642 96.3226 93.573 94.0555 105.443C93.6736 107.465 93.8221 110.423 93.8464 112.533C95.7376 112.514 102.299 112.436 103.96 112.707C104.639 113.337 104.612 113.112 104.669 113.803C103.321 115.511 93.6554 115.146 91.7399 114.226C90.7458 112.659 91.3217 106.266 91.4823 104.194C93.3493 96.3651 104.369 88.569 109.428 82.1307C112.44 78.2971 112.474 75.7568 112.298 71.2553C111.977 62.9675 112.328 54.7116 111.859 46.4469C111.795 45.3414 111.21 44.3037 110.252 43.653C109.398 43.0747 108.319 42.8674 107.291 43.0832C101.381 44.2885 105.921 59.0993 103.657 62.6073C102.73 63.0306 103.154 62.9818 102.033 62.6973C101.505 61.9257 101.481 48.7093 101.611 47.1904C101.684 46.2942 101.887 45.4114 102.218 44.5684C103.06 42.4129 104.197 41.7519 106.3 40.8314Z" fill="#106061"/>
<path d="M98.0867 64.2824C104.53 63.8182 107.91 68.9617 104.67 73.5154C103.021 75.835 91.7584 86.6658 89.5065 87.1264L88.8791 86.5683C88.8488 82.5643 106.128 73.5838 102.715 68.0114C101.557 66.5394 98.7414 66.0866 97.3745 67.3262C91.4553 72.6941 86.3666 77.5738 79.823 82.3059C72.5794 87.2673 72.1763 91.2945 72.2096 99.0026L72.2611 108.202C72.2702 109.785 72.3702 112.03 72.1126 113.532C71.4458 114.298 71.7913 114.106 70.8336 114.307C69.6788 113.329 69.4455 111.622 69.5546 110.18C70.0486 103.585 68.3999 93.8025 71.1882 87.8085C73.2946 83.2853 80.3473 79.0312 84.3662 75.7822C87.9274 72.9017 94.177 65.775 98.0867 64.2824Z" fill="#106061"/>
<path d="M23.4455 85.9733C21.0887 83.7977 11.6071 75.2437 10.2742 73.2251C9.68708 72.3515 9.35734 71.3458 9.31946 70.3118C9.27733 68.7288 9.96563 67.2 11.1237 66.0656C12.3324 64.8621 14.0184 64.188 15.7763 64.206C19.2554 64.2377 21.8292 67.4001 24.1796 69.6765L27.7517 72.9701C29.1056 74.2843 30.6698 75.8995 32.1603 77.0353L35.6382 79.5373L34.0588 81.3666C32.6889 80.5027 31.2384 79.3535 29.936 78.3735L26.1272 74.8626L21.9401 70.8898C19.2854 68.3569 14.0772 63.1431 11.9999 69.6745C11.1964 72.2017 22.8284 82.1405 24.9679 84.0782C25.9971 85.1911 26.0644 84.9335 26.3036 86.2014L25.9274 86.9195C24.6378 87.2266 24.3599 86.9696 23.4455 85.9733Z" fill="#106061"/>
<path d="M37.8903 84.2529C38.4844 83.3618 39.0442 83.2403 40.081 82.8352C40.7611 83.5314 41.7001 84.4393 42.2905 85.1674C44.5133 88.3101 45.7959 92.6374 45.4841 96.3684C45.211 99.6388 46.3151 112.036 44.8515 114.189C43.9687 114.328 44.3357 114.357 43.4288 113.97C41.0003 110.033 45.718 95.5305 40.3671 86.8064C39.6009 85.9633 38.6956 85.0765 37.8903 84.2529Z" fill="#106061"/>
<path d="M57.0582 0C58.2281 0.147513 58.5524 0.162661 59.2192 1.01C59.4738 3.53945 59.6981 20.6784 58.7828 22.0226C57.6129 21.8874 57.3492 21.8099 56.7036 20.9651C56.4036 18.5292 56.3703 1.65323 57.0582 0Z" fill="#106061"/>
<path d="M81.3137 7.38767C82.2048 7.56834 82.4957 7.5752 83.1231 8.20813C83.4565 9.64696 75.7703 23.4586 74.4277 25.7762C73.1759 25.3654 73.3548 25.6049 72.5667 24.7479C72.4182 23.209 80.0195 9.66497 81.3137 7.38767Z" fill="#106061"/>
<path d="M33.6074 7.26287C35.6707 8.02359 42.0518 21.7377 43.3593 24.4295C43.5387 24.7989 42.6968 25.5519 42.4189 25.8546C42.3282 25.8275 42.2367 25.8035 42.1473 25.7732C40.3612 25.1668 33.6383 11.3955 32.5038 8.90552C32.7051 7.8715 32.7039 8.13279 33.6074 7.26287Z" fill="#106061"/>
<path d="M98.944 22.4024C99.3077 22.3795 99.735 22.4467 100.108 22.4853C100.756 23.0653 100.608 22.7717 100.684 23.5779C99.7956 25.4253 88.1179 33.9967 85.6569 35.9807C84.684 35.9018 84.3475 35.4098 84.0141 34.6825C84.4809 33.1651 96.6284 24.1991 98.944 22.4024Z" fill="#106061"/>
<path d="M21.4835 29.0842C19.6538 28.0537 15.1522 24.9124 15.151 22.887L15.6929 22.6351C18.1799 22.8704 21.8927 26.2452 23.9815 27.8913L26.542 29.835L25.0508 31.7758L21.4835 29.0842Z" fill="#106061"/>
<path d="M17.3691 44.8846C19.5882 45.3146 24.7455 46.4484 26.2648 47.9066C26.5725 48.8863 26.4749 48.6088 26.0336 49.7394C23.7435 49.3758 19.1118 48.1405 17.3351 46.8083C16.8653 45.8046 16.9808 46.1471 17.3691 44.8846Z" fill="#106061"/>
<path d="M96.626 45.0609C97.023 44.9754 97.3685 45.0618 97.7747 45.1195C98.5111 45.8542 98.4445 45.5649 98.493 46.3731C97.6443 47.7379 93.0314 48.8708 91.222 49.4288C91.1038 49.4503 90.4098 49.4257 90.24 49.4223C89.4793 48.7559 89.6763 49.0924 89.4763 48.1653C90.234 46.7613 94.8347 45.6252 96.626 45.0609Z" fill="#106061"/>
<path d="M26.5424 29.8349C28.517 31.246 31.0153 32.6385 31.7645 34.8132L31.54 35.3615C29.5333 35.8232 26.5279 32.9599 25.0513 31.7758L26.5424 29.8349Z" fill="#106061"/>
<path d="M35.6382 79.5373C37.1381 80.6136 38.6189 81.7129 40.081 82.8352C39.0442 83.2403 38.4844 83.3618 37.8903 84.2529L34.0588 81.3666L35.6382 79.5373Z" fill="#106061"/>
</svg>
